<svg width="148" height="148" viewBox="0 0 148 148" fill="none" xmlns="http://www.w3.org/2000/svg">
<path d="M125.451 29.5409C123.952 28.0377 121.942 27.1542 119.821 27.0663C117.559 27.1167 115.407 28.0531 113.828 29.674C112.25 31.2949 111.371 33.4707 111.38 35.7332V68.4352C111.394 69.6562 110.504 70.6996 109.296 70.8832C108.971 70.9142 108.644 70.8768 108.334 70.7734C108.024 70.67 107.74 70.503 107.499 70.283C107.257 70.063 107.065 69.7949 106.934 69.4961C106.802 69.1972 106.735 68.8742 106.736 68.5477V17.0186C106.719 14.7995 105.83 12.6761 104.26 11.1075C102.773 9.59007 100.754 8.71194 98.6301 8.65954C96.3685 8.71184 94.2176 9.64903 92.6394 11.2698C91.0613 12.8906 90.1817 15.0657 90.1897 17.3279V62.3554V62.3524C90.1963 62.943 89.9891 63.5161 89.6065 63.966C89.2238 64.4159 88.6913 64.7122 88.1073 64.8004C87.7844 64.8327 87.4583 64.7973 87.15 64.6963C86.8416 64.5953 86.5577 64.431 86.3165 64.2139C86.0753 63.9968 85.8821 63.7318 85.7493 63.4357C85.6166 63.1396 85.5471 62.819 85.5454 62.4945V12.1509C85.5462 11.0084 85.3153 9.87763 84.8665 8.82699C84.4177 7.77636 83.7605 6.82768 82.9345 6.03838C82.1085 5.24907 81.131 4.63553 80.0611 4.23488C78.9912 3.83424 77.8511 3.65481 76.7098 3.70746C74.4457 3.75178 72.2902 4.68621 70.7102 6.30839C69.1301 7.93056 68.2527 10.1099 68.2679 12.3743V62.4368C68.2745 63.0274 68.0674 63.6005 67.6847 64.0503C67.302 64.5002 66.7696 64.7966 66.1855 64.8847C65.8627 64.9169 65.5367 64.8811 65.2285 64.7797C64.9203 64.6782 64.6368 64.5133 64.3962 64.2957C64.1557 64.0785 63.9629 63.8138 63.8299 63.5183C63.6969 63.2228 63.6267 62.9029 63.6237 62.5789V22.5064C63.625 20.3013 62.7631 18.1833 61.2224 16.6058C59.6816 15.0283 57.5846 14.1166 55.3801 14.066C53.1155 14.1088 50.9591 15.0427 49.3787 16.6652C47.7983 18.2877 46.9214 20.4679 46.9381 22.7329V85.6817L38.4933 74.2857C36.852 72.1219 34.4201 70.6968 31.7302 70.3223C29.0403 69.9478 26.3116 70.6545 24.1417 72.2877C22.078 73.8615 20.6869 76.1586 20.2483 78.7167C19.8098 81.2748 20.3564 83.904 21.7781 86.0754L37.142 110.643C38.5047 112.79 39.7001 115.038 40.7177 117.368L40.9989 118.017C57.3766 155.105 110.929 152.292 123.311 113.682C126.353 104.214 127.901 94.3308 127.899 84.3867V35.4505C127.888 33.2353 127.008 31.1128 125.449 29.5394L125.451 29.5409Z" fill="#E5B701"/>
</svg>
