<svg width="200" height="200" viewBox="0 0 200 200" fill="none" xmlns="http://www.w3.org/2000/svg">
<g clip-path="url(#clip0_3369_1016)">
<mask id="mask0_3369_1016" style="mask-type:luminance" maskUnits="userSpaceOnUse" x="0" y="0" width="200" height="200">
<path d="M0 0H200V200H0V0Z" fill="white"/>
</mask>
<g mask="url(#mask0_3369_1016)">
<path d="M100 66.6666C104.42 66.6666 108.66 64.9106 111.785 61.785C114.911 58.6594 116.667 54.4202 116.667 49.9999C116.667 45.5796 114.911 41.3404 111.785 38.2148C108.66 35.0892 104.42 33.3333 100 33.3333C95.5797 33.3333 91.3405 35.0892 88.2149 38.2148C85.0893 41.3404 83.3333 45.5796 83.3333 49.9999C83.3333 54.4202 85.0893 58.6594 88.2149 61.785C91.3405 64.9106 95.5797 66.6666 100 66.6666ZM175 124.5C175 120.333 172 116.75 167.917 116.333C152.25 114.583 138.833 106.917 128.333 94.4166L117.167 81.0832C114 77.1666 109.333 74.9999 104.417 74.9999H95.6667C90.75 74.9999 86.0833 77.1666 82.9167 80.9999L71.75 94.3332C61.3333 106.833 47.8333 114.5 32.1667 116.25C28 116.75 25 120.333 25 124.5C25 129.5 29.4167 133.417 34.4167 132.833C53.5833 130.583 70.4167 121.25 83.3333 106.25V125L52 137.5C46.5833 139.667 42.3333 144.417 41.75 150.25C41.5404 152.324 41.7678 154.419 42.4177 156.4C43.0676 158.381 44.1255 160.203 45.5232 161.75C46.9208 163.297 48.6272 164.534 50.5322 165.381C52.4372 166.227 54.4986 166.665 56.5833 166.667H75V162.5C75 156.975 77.1949 151.675 81.1019 147.768C85.0089 143.861 90.308 141.667 95.8333 141.667H120.833C123.167 141.667 125 143.5 125 145.833C125 148.167 123.167 150 120.833 150H95.8333C88.9167 150 83.3333 155.583 83.3333 162.5V166.667H142.5C149.583 166.667 156.25 162.167 157.917 155.25C159.667 147.833 155.667 140.583 148.917 137.917L116.667 125V106.25C129.667 121.25 146.417 130.5 165.583 132.833C170.583 133.333 175 129.5 175 124.5Z" fill="#E5B701"/>
</g>
</g>
<defs>
<clipPath id="clip0_3369_1016">
<rect width="200" height="200" fill="white"/>
</clipPath>
</defs>
</svg>
