<svg width="148" height="148" viewBox="0 0 148 148" fill="none" xmlns="http://www.w3.org/2000/svg">
<path d="M133.811 35.6981C132.971 37.0625 131.9 37.5041 130.765 37.4209H130.744C130.723 37.4209 130.723 37.4209 130.703 37.4001C129.988 37.3376 129.253 37.0648 128.54 36.7063C126.361 41.1787 124.086 45.6036 121.716 49.9778C119.232 54.6085 116.663 59.1934 114.011 63.7302C110.167 70.2607 106.872 75.2788 105.549 76.183C105.173 76.4559 105.004 77.0225 104.624 77.4433C101.219 77.8783 97.8023 78.2145 94.3778 78.4516H71.2805C73.149 74.777 77.2028 68.3714 82.1354 61.0662C85.5307 56.0759 88.9959 51.1336 92.5301 46.2408C98.5564 37.925 104.687 29.9053 109.349 24.4871C107.816 23.1643 106.935 21.5063 108.195 19.4273C109.014 18.0421 110.084 17.6213 111.241 17.7045V17.6814C111.261 17.6814 111.282 17.7022 111.282 17.7022C112.48 17.8063 113.738 18.4584 114.873 19.173C119.808 22.2393 124.785 25.2618 129.593 28.5386L131.105 29.4844C133.413 30.9528 135.448 32.967 133.811 35.6981ZM68.2974 56.3186C68.1725 55.0791 68.1933 54.619 68.2141 54.4501C68.3182 53.5043 68.4246 52.5608 68.6142 51.6358C72.6033 51.3838 76.6154 51.1733 80.6045 50.9213C81.7376 50.9421 82.8523 50.9629 83.9854 51.0253C82.9355 52.5169 81.9064 54.0061 80.919 55.4561C80.8149 55.4353 80.6878 55.4353 80.5837 55.4353C76.4859 55.7498 72.3928 56.0226 68.2974 56.3186Z" fill="#E5B701"/>
<path d="M146.284 69.9878C146.305 75.0475 145.297 103.038 145.297 103.038C145.297 126.767 126.043 146.02 102.314 146.02H90.0094C83.7921 146.366 77.5603 146.366 71.3429 146.02H58.6612C34.9326 146.02 15.6788 126.764 15.6788 103.038C15.6788 103.038 15.1122 75.8869 14.7121 71.9834C14.3352 68.2464 15.8244 65.3281 18.8908 63.522C22.3133 61.4431 25.9254 59.5537 29.6624 58.1686C37.2012 55.3751 45.0544 53.865 52.9701 52.9192C53.2846 54.2419 53.6431 55.7959 54.0408 57.5187C46.5021 58.3374 39.0281 59.7873 32.0351 62.7889C29.7094 63.8149 27.5447 65.1726 25.6086 66.8196C23.4048 68.7089 23.4673 71.2712 25.6294 73.2021C27.3737 74.7215 29.3337 75.9739 31.4454 76.9183C38.2488 79.9847 45.5771 81.3491 52.947 82.3365C57.5882 82.9447 62.2062 83.3864 66.8474 83.7009H94.5651C101.22 83.2384 107.878 82.4614 114.534 81.2866C120.622 80.1951 126.649 78.766 132.108 75.7436C134.46 74.4624 137.002 73.0564 136.916 69.886C136.875 66.8196 134.416 65.3304 132.065 64.2366C128.684 62.6826 125.178 61.2766 121.587 60.3308C121.355 60.2683 121.145 60.2059 120.914 60.1411C121.712 58.7143 122.53 57.2644 123.307 55.7936C124.147 56.0041 124.965 56.2145 125.784 56.4434C130.656 57.787 135.337 59.97 139.978 62.0073C141.657 62.7635 143.19 64.1279 144.388 65.557C145.359 66.7734 146.284 68.4754 146.284 69.9878Z" fill="#E5B701"/>
<path d="M90.8073 34.0816C89.8406 37.7561 88.0785 40.8849 84.7809 43.0055C82.8291 44.2658 80.7294 45.1677 78.5649 45.799C77.1797 46.199 75.7506 46.4719 74.2821 46.6592C71.595 46.9529 68.8639 46.9945 66.1976 46.5344L65.8415 46.4719C65.8207 46.4927 65.8207 46.5344 65.7999 46.5552C65.2541 47.8571 64.7916 49.159 64.5188 50.5859C64.3083 51.719 64.1626 52.8544 64.0354 53.9875C63.8874 55.3103 64.2667 58.3142 64.8333 61.82C65.7999 67.8047 67.3099 75.2995 67.6059 78.4492H67.0163C65.2785 78.3332 63.5424 78.1929 61.8085 78.0283C61.7463 77.7091 61.7046 77.3862 61.6836 77.0617C61.5148 75.4869 61.6004 75.991 61.4108 74.4162C61.2003 72.5893 60.3401 67.6128 59.311 62.2802C58.1571 56.4642 56.7696 50.2482 55.7405 47.3299C55.6116 46.9491 55.4571 46.5775 55.278 46.2175C54.3114 44.2866 53.0303 42.543 51.6034 40.9057C50.1974 39.2893 48.6851 37.7977 47.3415 36.098C45.7667 34.1232 43.6669 32.3819 41.8193 30.6382C38.1068 27.1041 34.2167 23.7613 30.1643 20.6228C26.181 17.5215 22.0316 14.6397 17.7346 11.9902C23.2568 17.05 29.5561 22.5722 35.5616 28.3905C40.9798 33.6191 50.0703 45.1677 51.8139 47.3923C51.8375 47.4268 51.8525 47.4664 51.8576 47.5079C51.8627 47.5493 51.8578 47.5914 51.8434 47.6306C51.8289 47.6698 51.8052 47.7049 51.7743 47.7331C51.7434 47.7612 51.7062 47.7816 51.6659 47.7924C51.245 47.8548 50.8264 48.0028 50.5119 47.982L49.3788 48.1069H49.2539C47.6583 48.2549 46.1043 48.2317 44.4254 48.2109C41.7591 48.1693 39.0928 48.1901 36.4473 48.0005C36.4057 48.0005 36.3849 48.0005 36.3641 47.9797C28.3004 47.3715 21.3929 44.2843 16.0603 38.0475C11.7336 32.9669 8.56319 27.4216 6.25531 21.5224C4.02375 15.8544 2.61775 9.84886 1.73438 3.63518C1.58869 2.52055 2.30094 1.76436 3.45719 1.72274C4.12781 1.70193 4.80075 1.78518 5.4945 1.84993C11.248 2.2708 16.9599 2.85818 22.607 4.1393C23.5528 4.34974 24.4755 4.58099 25.4213 4.85386C31.8686 6.6183 38.4615 8.21393 44.3815 11.3844C48.4122 13.5465 52.0659 16.6546 54.4825 20.5604C56.1047 23.2107 56.9759 26.2522 57.0031 29.3594C57.0448 31.9633 56.9615 35.7627 55.5324 38.0521C55.5324 38.4522 55.5948 38.7667 55.7636 38.954C57.4864 41.0121 59.0381 43.468 60.5089 46.4511V46.4719L60.5297 46.4927C60.5713 46.6176 60.6129 46.7656 60.6777 46.9136C60.8257 47.3553 61.013 47.8386 61.1818 48.2988C61.2443 48.53 61.3298 48.7613 61.4131 48.9925C61.5819 48.53 61.7484 48.0467 61.9172 47.6074C62.0145 47.3324 62.1336 47.0656 62.2733 46.8095C62.4213 46.4326 62.5878 46.0534 62.7358 45.718C63.1128 44.9202 63.6169 44.0392 63.7233 43.135C63.8273 42.1267 63.3879 41.0977 63.2608 40.0894C62.3589 33.2444 63.1359 26.5867 65.4854 20.1002C67.0186 15.9007 69.7265 12.7719 73.4866 10.4617C77.182 8.1723 81.2566 6.74549 85.3914 5.46436C86.5037 5.17068 87.616 4.85618 88.7514 4.5833C89.6973 4.35205 90.3679 4.85618 90.4511 5.80199C90.8928 10.5056 91.3969 15.1884 91.7531 19.8712C92.13 24.6535 92.0468 29.3987 90.8073 34.0816Z" fill="#E5B701"/>
</svg>
