<svg width="200" height="200" viewBox="0 0 200 200" fill="none" xmlns="http://www.w3.org/2000/svg">
<path d="M124.044 25.2813L129.669 28.3547C129.851 28.4549 130.001 28.605 130.101 28.7875L133.175 34.4125C133.27 34.5835 133.408 34.726 133.576 34.8252C133.745 34.9244 133.937 34.9768 134.132 34.9768C134.327 34.9768 134.519 34.9244 134.687 34.8252C134.856 34.726 134.994 34.5835 135.089 34.4125L138.162 28.7875C138.263 28.6048 138.414 28.4546 138.597 28.3547L144.222 25.2813C144.393 25.1867 144.535 25.048 144.634 24.8797C144.734 24.7114 144.786 24.5196 144.786 24.3242C144.786 24.1289 144.734 23.9371 144.634 23.7688C144.535 23.6005 144.393 23.4618 144.222 23.3672L138.597 20.2938C138.414 20.1929 138.263 20.0423 138.162 19.8594L135.089 14.2344C134.994 14.0635 134.856 13.921 134.687 13.8217C134.519 13.7225 134.327 13.6702 134.132 13.6702C133.937 13.6702 133.745 13.7225 133.576 13.8217C133.408 13.921 133.27 14.0635 133.175 14.2344L130.101 19.8594C130.001 20.0422 129.851 20.1929 129.669 20.2938L124.044 23.3672C123.873 23.4618 123.73 23.6005 123.631 23.7688C123.532 23.9371 123.479 24.1289 123.479 24.3242C123.479 24.5196 123.532 24.7114 123.631 24.8797C123.73 25.048 123.873 25.1867 124.044 25.2813ZM95.3296 47.1875L98.6109 48.9813C98.7174 49.0402 98.8051 49.1279 98.864 49.2344L100.658 52.5156C100.712 52.6161 100.793 52.6999 100.891 52.7584C100.99 52.8168 101.102 52.8476 101.216 52.8476C101.331 52.8476 101.443 52.8168 101.541 52.7584C101.64 52.6999 101.72 52.6161 101.775 52.5156L103.57 49.2344C103.629 49.1275 103.716 49.0397 103.823 48.9813L107.105 47.1875C107.205 47.1329 107.289 47.0521 107.347 46.9538C107.406 46.8555 107.437 46.7433 107.437 46.6289C107.437 46.5146 107.406 46.4023 107.347 46.304C107.289 46.2057 107.205 46.125 107.105 46.0703L103.823 44.2766C103.716 44.2182 103.629 44.1303 103.57 44.0235L101.775 40.7422C101.72 40.6422 101.639 40.5588 101.541 40.5007C101.443 40.4426 101.33 40.4119 101.216 40.4119C101.102 40.4119 100.99 40.4426 100.892 40.5007C100.794 40.5588 100.713 40.6422 100.658 40.7422L98.864 44.0235C98.8051 44.13 98.7174 44.2177 98.6109 44.2766L95.3296 46.0703C95.2292 46.125 95.1453 46.2057 95.0869 46.304C95.0285 46.4023 94.9976 46.5146 94.9976 46.6289C94.9976 46.7433 95.0285 46.8555 95.0869 46.9538C95.1453 47.0521 95.2292 47.1329 95.3296 47.1875ZM159.219 55.6797C158.547 50.7906 153.998 46.4203 148.205 49.0985C147.3 49.5172 146.397 49.936 145.392 50.3485C145.33 50.3948 145.257 50.4229 145.18 50.4297C143.363 51.2449 141.527 52.0144 139.672 52.7375C136.766 53.8797 133.389 55.1297 129.231 56.5625C105.434 64.761 97.364 88.2156 107.094 101.695C107.153 101.606 107.229 101.529 107.317 101.467C112.064 95.9891 119.003 86.25 128.594 82.1594C122.64 87.6499 117.31 93.7808 112.701 100.441C106.398 109.182 102.255 119.292 100.612 129.944C98.4704 123.394 95.1327 117.299 90.7687 111.966C90.7687 111.952 90.7843 111.938 90.7905 111.923L90.7343 111.892C90.6171 111.752 90.4874 111.614 90.3687 111.473C88.6147 109.365 86.7158 107.381 84.6859 105.536C80.4381 101.625 75.8782 98.0673 71.0515 94.8985C80.114 97.0641 87.6905 104.6 92.6937 108.714C92.7804 108.755 92.8588 108.812 92.9249 108.881C99.4734 95.5484 88.8452 76.0969 66.6593 72.4422C63.3894 71.9114 60.1314 71.3103 56.8874 70.6391C55.1446 70.2813 53.4113 69.879 51.689 69.4328C51.6203 69.4387 51.5514 69.4246 51.4905 69.3922C50.5973 69.1876 49.7091 68.962 48.8265 68.7156C43.3187 67.225 39.9687 71.7578 40.1109 76.1641C40.2761 81.8465 41.2138 87.4799 42.8984 92.9094C44.0212 96.5354 45.4862 100.046 47.2734 103.395C53.3921 114.802 61.5655 120.456 72.553 120.95C76.1808 121.031 79.7681 120.175 82.9687 118.466C83.7077 118.05 84.4468 117.634 85.0984 117.241C85.7827 116.792 86.3796 116.367 86.964 115.9L87.328 115.616C93.3905 123.464 98.9546 133.797 99.3921 145.234C99.228 152.044 99.2624 159.062 99.3609 163.611C95.7394 163.505 92.1446 164.26 88.8718 165.814C77.5905 161.169 69.0405 169.02 65.278 173.845C58.6187 173.845 54.1343 175.859 47.5609 181.014C47.0722 181.394 46.7145 181.917 46.5378 182.51C46.3611 183.103 46.3742 183.737 46.5753 184.322C46.7764 184.908 47.1554 185.416 47.6594 185.775C48.1633 186.134 48.7669 186.327 49.3859 186.327H153.05C153.647 186.324 154.229 186.143 154.722 185.805C155.214 185.467 155.593 184.99 155.811 184.434C156.028 183.878 156.073 183.269 155.94 182.687C155.807 182.105 155.503 181.577 155.066 181.17C147.839 174.409 137.891 172.131 135.289 172.691C126.264 164.214 120.164 161.661 111.125 166.248C108.608 165.12 105.949 164.343 103.22 163.941C103.245 163.847 103.261 163.752 103.27 163.656C103.17 159.144 103.137 152.094 103.303 145.27V145.228C103.339 143.759 103.381 142.297 103.437 140.878C103.797 129.047 107.174 117.505 113.25 107.347C113.875 107.717 114.483 108.048 114.984 108.317C115.719 108.723 116.455 109.08 117.294 109.445C118.087 109.758 118.981 110.07 119.875 110.398C123.725 111.683 127.842 111.952 131.826 111.18C143.858 108.57 151.808 100.791 156.417 87.0641C157.762 83.0335 158.721 78.8841 159.28 74.6719C160.121 68.3677 160.1 61.9784 159.219 55.6797Z" fill="#E5B701"/>
</svg>
