<svg width="169" height="169" viewBox="0 0 169 169" fill="none" xmlns="http://www.w3.org/2000/svg">
<path d="M11.154 157.339C11.323 156.663 10.985 156.156 10.309 155.987L7.77397 155.311C7.09797 155.142 6.59097 155.48 6.42197 156.156C6.25297 156.832 6.59097 157.339 7.26697 157.508L9.80197 158.184C10.309 158.353 10.985 157.846 11.154 157.339ZM18.759 157.846L16.224 157.17C15.548 157.001 15.041 157.339 14.872 158.015C14.703 158.691 15.041 159.198 15.717 159.367L18.252 160.043C18.928 160.212 19.435 159.874 19.604 159.198C19.773 158.691 19.435 158.015 18.759 157.846ZM14.534 150.917C13.858 150.748 13.351 151.086 13.182 151.762L12.506 154.297C12.337 154.973 12.675 155.48 13.351 155.649C14.027 155.818 14.534 155.48 14.703 154.804L15.379 152.269C15.548 151.762 15.21 151.086 14.534 150.917ZM12.506 159.536C11.83 159.536 11.323 159.874 11.154 160.55L10.478 163.085C10.309 163.761 10.647 164.268 11.323 164.437C11.999 164.606 12.506 164.268 12.675 163.592L13.351 161.057C13.52 160.381 13.182 159.705 12.506 159.536ZM13.182 156.663C12.675 156.494 12.168 156.832 11.999 157.339C11.83 157.846 12.168 158.353 12.675 158.522C13.182 158.691 13.689 158.353 13.858 157.846C14.027 157.339 13.689 156.832 13.182 156.663ZM114.413 15.041L116.948 15.717C117.624 15.886 118.131 15.548 118.3 14.872C118.469 14.196 118.131 13.689 117.455 13.52L114.92 12.844C114.244 12.675 113.737 13.013 113.568 13.689C113.399 14.365 113.737 15.041 114.413 15.041ZM122.187 15.717C122.018 16.393 122.356 16.9 123.032 17.069L125.567 17.745C126.243 17.914 126.75 17.576 126.919 16.9C127.088 16.224 126.75 15.717 126.074 15.548L123.539 14.872C122.863 14.703 122.187 15.21 122.187 15.717ZM120.666 13.351C121.342 13.52 121.849 13.182 122.018 12.506L122.694 9.97104C122.863 9.29504 122.525 8.78804 121.849 8.61904C121.173 8.45004 120.666 8.78804 120.497 9.46404L119.821 11.999C119.652 12.675 119.99 13.182 120.666 13.351ZM118.638 21.97C119.314 22.139 119.821 21.801 119.99 21.125L120.666 18.59C120.835 17.914 120.497 17.407 119.821 17.238C119.145 17.069 118.638 17.407 118.469 18.083L117.793 20.618C117.624 21.294 117.962 21.801 118.638 21.97ZM119.99 16.224C120.497 16.393 121.004 16.055 121.173 15.548C121.342 15.041 121.004 14.534 120.497 14.365C119.99 14.196 119.483 14.534 119.314 15.041C119.145 15.548 119.483 16.224 119.99 16.224ZM151.931 114.413L149.396 113.737C148.72 113.568 148.213 113.906 148.044 114.582C147.875 115.258 148.213 115.765 148.889 115.934L151.424 116.61C152.1 116.779 152.607 116.441 152.776 115.765C152.945 115.089 152.607 114.582 151.931 114.413ZM156.663 116.779C156.494 117.455 156.832 117.962 157.508 118.131L160.043 118.807C160.719 118.976 161.226 118.638 161.395 117.962C161.564 117.286 161.226 116.779 160.55 116.61L158.015 115.934C157.339 115.765 156.663 116.103 156.663 116.779ZM156.325 109.681C155.649 109.512 155.142 109.85 154.973 110.526L154.297 113.061C154.128 113.737 154.466 114.244 155.142 114.413C155.818 114.582 156.325 114.244 156.494 113.568L157.17 111.033C157.339 110.357 156.832 109.681 156.325 109.681ZM152.776 119.145L152.269 121.68C152.1 122.356 152.438 122.863 153.114 123.032C153.79 123.201 154.297 122.863 154.466 122.187L155.142 119.652C155.311 118.976 154.973 118.469 154.297 118.3C153.621 118.131 152.945 118.469 152.776 119.145ZM153.621 116.103C153.452 116.61 153.79 117.117 154.297 117.286C154.804 117.455 155.311 117.117 155.48 116.61C155.649 116.103 155.311 115.596 154.804 115.427C154.297 115.258 153.79 115.596 153.621 116.103ZM50.7 150.917C47.827 150.917 45.461 153.283 45.461 156.156C45.461 159.029 47.827 161.395 50.7 161.395C53.573 161.395 55.939 159.029 55.939 156.156C56.108 153.283 53.742 150.917 50.7 150.917ZM50.7 159.029C49.179 159.029 47.827 157.846 47.827 156.156C47.827 154.635 49.01 153.283 50.7 153.283C52.221 153.283 53.573 154.466 53.573 156.156C53.573 157.846 52.39 159.029 50.7 159.029ZM11.83 14.872C14.703 14.872 17.069 12.506 17.069 9.63304C17.069 6.76004 14.703 4.39404 11.83 4.39404C8.95697 4.39404 6.42197 6.59104 6.42197 9.46404C6.42197 12.506 8.78797 14.872 11.83 14.872ZM11.83 6.76004C13.351 6.76004 14.703 7.94304 14.703 9.63304C14.703 11.154 13.52 12.506 11.83 12.506C10.14 12.506 8.95697 11.154 8.95697 9.46404C8.95697 7.94304 10.14 6.76004 11.83 6.76004ZM142.129 22.308L146.861 23.66C147.368 23.829 147.706 24.167 147.875 24.505L149.565 29.237C149.903 30.42 151.424 30.589 152.1 29.575L154.804 25.519C155.142 25.181 155.48 24.843 155.987 24.843L160.888 24.674C162.071 24.674 162.747 23.322 161.902 22.308L158.86 18.421C158.522 18.083 158.522 17.576 158.691 17.069L160.043 12.337C160.381 11.154 159.367 10.14 158.184 10.647L153.621 12.337C153.114 12.506 152.776 12.506 152.269 12.168L148.213 9.29504C147.199 8.61904 146.016 9.29504 146.016 10.478L146.185 15.379C146.185 15.886 146.016 16.224 145.678 16.562L141.791 19.604C140.777 20.449 141.115 21.97 142.129 22.308ZM149.565 138.749H149.227C149.227 145.34 143.819 150.748 137.228 150.748V151.086C143.819 151.086 149.227 156.494 149.227 163.085H149.565C149.565 156.494 154.973 151.086 161.564 151.086V150.748C154.973 150.748 149.565 145.34 149.565 138.749ZM159.874 50.193L101.4 24.674C97.682 22.984 93.288 24.843 91.598 28.561L89.063 34.307C89.063 34.476 91.936 48.165 91.767 47.996L97.682 34.476C98.02 33.631 99.034 33.293 99.879 33.631L114.751 40.053C115.596 40.391 115.934 41.405 115.596 42.25C115.258 43.095 114.244 43.433 113.399 43.095L100.048 37.349L93.457 52.559C93.288 52.897 93.119 53.066 92.781 53.235L103.766 107.315C106.639 104.949 109.174 101.907 110.864 98.358C115.258 88.556 112.723 77.571 105.118 70.642C107.653 70.811 110.188 71.487 112.554 72.67C124.722 78.078 130.13 92.443 124.722 104.611C121.173 112.385 114.075 117.455 106.132 118.638L106.808 122.356C107.991 128.271 104.273 133.848 98.358 135.031L60.84 142.636L110.188 164.099C113.906 165.789 118.3 163.93 119.99 160.212L163.592 59.826C165.282 56.108 163.592 51.714 159.874 50.193ZM121.173 137.566L113.906 154.466C113.568 155.311 112.554 155.649 111.709 155.311L96.837 148.889C95.992 148.551 95.654 147.537 95.992 146.692C96.33 145.847 97.344 145.509 98.189 145.847L111.54 151.593L118.131 136.383C118.469 135.538 119.483 135.2 120.328 135.538C121.173 135.707 121.511 136.721 121.173 137.566ZM155.142 59.319L147.875 76.219C147.537 77.064 146.523 77.402 145.678 77.064C144.833 76.726 144.495 75.712 144.833 74.867L151.424 59.657L138.073 53.911C137.228 53.573 136.89 52.559 137.228 51.714C137.566 50.869 138.58 50.531 139.425 50.869L154.297 57.291C155.142 57.46 155.649 58.474 155.142 59.319Z" fill="#E5B701"/>
<path d="M103.766 123.032L81.796 15.7171C80.951 11.6611 77.064 9.12611 73.008 9.97111L10.478 22.6461C6.42197 23.4911 3.88697 27.3781 4.73197 31.4341L26.533 138.749C27.378 142.805 31.265 145.34 35.321 144.495L97.851 131.82C101.907 130.975 104.442 127.088 103.766 123.032ZM80.613 70.3041C81.458 70.4731 82.134 71.3181 81.965 72.3321C81.796 73.1771 80.951 73.8531 79.937 73.6841C76.219 73.0081 72.501 73.8531 69.29 75.8811C68.445 76.3881 67.431 76.2191 66.924 75.3741C66.417 74.5291 66.586 73.5151 67.431 73.0081C71.318 70.4731 76.05 69.4591 80.613 70.3041ZM60.502 63.3751C60.502 64.3891 59.826 65.0651 58.981 65.2341C57.967 65.2341 57.291 64.5581 57.122 63.7131C56.953 59.1501 58.305 54.5871 61.347 51.0381C62.023 50.3621 63.037 50.1931 63.713 50.8691C64.389 51.5451 64.558 52.5591 63.882 53.2351C61.516 55.9391 60.333 59.6571 60.502 63.3751ZM63.544 66.9241C65.572 62.8681 69.121 59.6571 73.515 58.1361C74.36 57.7981 75.374 58.3051 75.712 59.1501C76.05 59.9951 75.543 61.0091 74.698 61.3471C71.149 62.6991 68.276 65.2341 66.586 68.6141C66.248 69.4591 65.234 69.7971 64.389 69.2901C63.544 68.7831 63.206 67.7691 63.544 66.9241ZM67.938 80.1061C72.501 79.9371 77.064 81.2891 80.613 84.3311C81.289 85.0071 81.458 86.0211 80.782 86.6971C80.106 87.3731 79.092 87.5421 78.416 86.8661C75.543 84.5001 71.825 83.1481 68.107 83.4861C67.262 83.4861 66.417 82.8101 66.248 81.9651C66.248 80.9511 66.924 80.1061 67.938 80.1061ZM56.784 22.1391L72.67 18.9281C73.515 18.7591 74.529 19.2661 74.698 20.2801L78.416 38.1941C78.585 39.2081 77.909 40.2221 76.726 40.2221C75.881 40.2221 75.205 39.7151 75.036 38.8701L71.656 22.4771L57.46 25.3501C56.615 25.5191 55.601 25.0121 55.432 23.9981C55.263 23.1531 55.77 22.3081 56.784 22.1391ZM47.32 50.8691C47.489 50.0241 48.334 49.3481 49.348 49.5171C50.193 49.6861 50.869 50.5311 50.7 51.5451C50.024 55.2631 50.869 58.9811 52.897 62.1921C53.404 63.0371 53.235 64.0511 52.39 64.5581C51.545 65.0651 50.531 64.8961 50.024 64.0511C47.489 60.1641 46.475 55.4321 47.32 50.8691ZM36.166 55.7701C37.011 55.4321 38.025 55.9391 38.363 56.7841C39.715 60.3331 42.25 63.2061 45.63 64.8961C46.475 65.2341 46.813 66.4171 46.306 67.0931C45.968 67.9381 44.954 68.2761 44.109 67.7691C40.053 65.7411 36.842 62.1921 35.321 57.7981C34.814 57.1221 35.152 56.1081 36.166 55.7701ZM47.996 91.0911C47.996 90.0771 48.672 89.4011 49.517 89.2321C50.362 89.2321 51.207 89.9081 51.376 90.7531C51.545 95.3161 50.193 99.8791 47.151 103.428C46.475 104.104 45.461 104.273 44.785 103.597C44.109 102.921 43.94 101.907 44.616 101.231C46.982 98.5271 48.165 94.8091 47.996 91.0911ZM41.912 86.0211C42.25 85.1761 43.433 84.8381 44.109 85.3451C44.954 85.8521 45.292 86.8661 44.785 87.5421C42.757 91.5981 39.208 94.8091 34.814 96.3301C33.969 96.6681 32.955 96.1611 32.617 95.3161C32.279 94.4711 32.786 93.4571 33.631 93.1191C37.349 91.9361 40.222 89.4011 41.912 86.0211ZM40.729 74.3601C36.166 74.5291 31.603 73.1771 28.054 70.1351C27.378 69.4591 27.209 68.4451 27.885 67.7691C28.561 67.0931 29.575 66.9241 30.251 67.6001C33.124 69.9661 36.842 71.3181 40.56 70.9801C41.405 70.9801 42.25 71.6561 42.419 72.5011C42.25 73.5151 41.574 74.3601 40.729 74.3601ZM18.59 52.0521C17.745 52.0521 17.069 51.5451 16.9 50.7001L13.182 32.6171C13.013 31.7721 13.52 30.7581 14.534 30.5891L30.42 27.3781C31.265 27.2091 32.279 27.7161 32.448 28.7301C32.617 29.5751 32.11 30.5891 31.096 30.7581L16.9 33.6311L20.28 50.0241C20.449 51.0381 19.604 52.0521 18.59 52.0521ZM27.885 84.1621C27.04 83.9931 26.364 83.1481 26.533 82.1341C26.702 81.2891 27.547 80.6131 28.561 80.7821C32.279 81.4581 35.997 80.6131 39.208 78.5851C40.053 78.0781 41.067 78.2471 41.574 79.0921C42.081 79.9371 41.912 80.9511 41.067 81.4581C37.011 84.1621 32.448 85.0071 27.885 84.1621ZM51.883 132.327L35.997 135.538C35.152 135.707 34.138 135.2 33.969 134.186L30.251 116.272C30.082 115.427 30.589 114.413 31.603 114.244C32.448 114.075 33.462 114.582 33.631 115.596L37.011 131.989L51.207 129.116C52.052 128.947 53.066 129.454 53.235 130.468C53.235 131.313 52.728 132.158 51.883 132.327ZM61.178 103.597C61.009 104.442 60.333 104.949 59.488 104.949C58.474 104.949 57.629 103.935 57.798 102.921C58.474 99.2031 57.629 95.4851 55.601 92.2741C55.094 91.4291 55.263 90.4151 56.108 89.9081C56.953 89.4011 57.967 89.5701 58.474 90.4151C61.178 94.3021 62.023 99.0341 61.178 103.597ZM55.77 84.8381C51.545 85.6831 47.489 82.9791 46.644 78.7541C45.799 74.5291 48.503 70.4731 52.728 69.6281C56.953 68.7831 61.009 71.4871 61.854 75.7121C62.699 79.9371 59.995 83.9931 55.77 84.8381ZM72.501 98.6961C71.656 99.0341 70.642 98.5271 70.304 97.6821C68.952 94.1331 66.417 91.2601 63.037 89.5701C62.192 89.0631 61.854 88.0491 62.361 87.3731C62.699 86.5281 63.882 86.1901 64.558 86.6971C68.614 88.7251 71.825 92.2741 73.346 96.6681C73.853 97.3441 73.346 98.3581 72.501 98.6961ZM93.964 123.708L78.078 126.919C77.233 127.088 76.219 126.581 76.05 125.567C75.881 124.722 76.388 123.708 77.402 123.539L91.598 120.666L88.218 104.273C88.049 103.428 88.556 102.414 89.57 102.245C90.415 102.076 91.429 102.583 91.598 103.597L95.316 121.511C95.485 122.694 94.978 123.539 93.964 123.708Z" fill="#E5B701"/>
</svg>
