<svg width="160" height="160" viewBox="0 0 160 160" fill="none" xmlns="http://www.w3.org/2000/svg">
<path d="M73.775 73.2399L70.2875 28.7524L47.7875 38.9774L52.08 64.1999L73.775 73.2399ZM48.1225 87.6574L45.8725 71.4824L32.525 89.8374C36.5046 88.2991 40.7334 87.5067 45 87.4999C46.055 87.4999 47.0925 87.5674 48.1225 87.6574ZM50 115V105H40V115C40 115.663 39.7366 116.299 39.2678 116.768C38.7989 117.237 38.163 117.5 37.5 117.5H27.5V127.5H37.5C38.163 127.5 38.7989 127.763 39.2678 128.232C39.7366 128.701 40 129.337 40 130V140H50V130C50 129.337 50.2634 128.701 50.7322 128.232C51.2011 127.763 51.837 127.5 52.5 127.5H62.5V117.5H52.5C51.837 117.5 51.2011 117.237 50.7322 116.768C50.2634 116.299 50 115.663 50 115ZM70.155 152.5L70.5525 146.34C68.3124 148.738 65.7485 150.811 62.935 152.5H70.155Z" fill="#E5B701"/>
<path d="M72.88 22.5299L94.2075 25.8099L68.1575 8.44238L52.21 31.4774L71.46 22.7274C71.9039 22.5243 72.3976 22.4557 72.88 22.5299ZM143.393 84.9999H135.22L138.923 93.6424L143.393 84.9999ZM144.115 79.9999L135.703 52.6574L110.878 54.7274L119.303 79.9999H144.115ZM128.333 84.9999H119.403L117.073 93.4449L128.333 84.9999ZM53.295 88.5349C61.404 90.526 68.5354 95.3471 73.405 102.13L74.89 79.1299L50.58 68.9999L53.295 88.5349ZM113.71 107.322L105.495 152.5H115.51L122.348 122.872L113.71 107.322ZM115.743 100.692L126.378 119.832L143.875 117.887L131.455 88.9074L115.743 100.692ZM110.473 98.5774L114.888 82.5774L108 61.8974L88.1075 152.5H100.415L110.04 99.5524C110.111 99.1997 110.259 98.867 110.473 98.5774ZM120.643 152.5H128.455L143.208 122.992L127.038 124.79L120.643 152.5Z" fill="#E5B701"/>
<path d="M102.368 32.125L75.25 27.95L78.97 75.5C79.308 75.7443 79.579 76.0698 79.7581 76.4464C79.9372 76.823 80.0187 77.2386 79.995 77.655L79.6075 83.655L84.3575 146.305L99.73 76.2825L102.368 32.125ZM45 92.5C39.0666 92.5 33.2664 94.2594 28.3329 97.5559C23.3994 100.852 19.5543 105.538 17.2836 111.019C15.013 116.501 14.4189 122.533 15.5765 128.353C16.734 134.172 19.5912 139.518 23.7868 143.713C27.9824 147.909 33.3279 150.766 39.1473 151.924C44.9667 153.081 50.9987 152.487 56.4805 150.216C61.9623 147.946 66.6477 144.101 69.9441 139.167C73.2405 134.234 75 128.433 75 122.5C74.9914 114.546 71.8279 106.92 66.2037 101.296C60.5795 95.672 52.9539 92.5086 45 92.5ZM67.5 115V130C67.5 130.663 67.2366 131.299 66.7678 131.768C66.2989 132.237 65.6631 132.5 65 132.5H55V142.5C55 143.163 54.7366 143.799 54.2678 144.268C53.7989 144.737 53.1631 145 52.5 145H37.5C36.837 145 36.2011 144.737 35.7322 144.268C35.2634 143.799 35 143.163 35 142.5V132.5H25C24.337 132.5 23.7011 132.237 23.2322 131.768C22.7634 131.299 22.5 130.663 22.5 130V115C22.5 114.337 22.7634 113.701 23.2322 113.232C23.7011 112.763 24.337 112.5 25 112.5H35V102.5C35 101.837 35.2634 101.201 35.7322 100.732C36.2011 100.263 36.837 100 37.5 100H52.5C53.1631 100 53.7989 100.263 54.2678 100.732C54.7366 101.201 55 101.837 55 102.5V112.5H65C65.6631 112.5 66.2989 112.763 66.7678 113.232C67.2366 113.701 67.5 114.337 67.5 115ZM76.065 138.555L75.1675 152.5H79.8025L78.3375 133.132C77.7351 135.001 76.9749 136.815 76.065 138.555Z" fill="#E5B701"/>
</svg>
