<svg preserveAspectRatio="none" width="100%" height="100%" overflow="visible" style="display: block;" viewBox="0 0 56 56" fill="none" xmlns="http://www.w3.org/2000/svg">
<g id="search-02">
<path id="Vector" fill-rule="evenodd" clip-rule="evenodd" d="M46.2128 38.8568C44.7748 37.4187 42.7042 36.9987 40.8966 37.5968L36.9131 33.6131C39.3701 30.4523 40.8333 26.4803 40.8333 22.1667C40.8333 11.8573 32.476 3.5 22.1667 3.5C11.8573 3.5 3.5 11.8573 3.5 22.1667C3.5 32.476 11.8573 40.8333 22.1667 40.8333C26.4803 40.8333 30.4523 39.3701 33.6131 36.9131L37.5968 40.8966C36.9987 42.7042 37.4187 44.7748 38.8568 46.2128L43.6205 50.9766C45.6519 53.0077 48.9452 53.0077 50.9766 50.9766C53.0077 48.9452 53.0077 45.6519 50.9766 43.6205L46.2128 38.8568ZM8.16667 22.1667C8.16667 14.4347 14.4347 8.16667 22.1667 8.16667C29.8986 8.16667 36.1667 14.4347 36.1667 22.1667C36.1667 29.8986 29.8986 36.1667 22.1667 36.1667C14.4347 36.1667 8.16667 29.8986 8.16667 22.1667Z" fill="var(--fill-0, #E5B701)"/>
</g>
</svg>
