<svg preserveAspectRatio="none" width="100%" height="100%" overflow="visible" style="display: block;" viewBox="0 0 56 56" fill="none" xmlns="http://www.w3.org/2000/svg">
<g id="medal-04">
<path id="Vector" fill-rule="evenodd" clip-rule="evenodd" d="M28.0002 26.25C28.6694 26.25 29.2801 26.6317 29.5731 27.2333L32.6125 33.4689L39.862 34.2823C40.551 34.3595 41.1294 34.8364 41.3366 35.4982C41.5441 36.1599 41.3411 36.8816 40.8191 37.3382L35.5231 41.9729L36.9231 48.6404C37.0627 49.3047 36.8053 49.9898 36.263 50.3981C35.7208 50.8065 34.9911 50.8641 34.3915 50.5465L28.0002 47.1609L21.6088 50.5465C21.009 50.8641 20.2795 50.8065 19.7372 50.3981C19.1948 49.9898 18.9375 49.3047 19.077 48.6404L20.477 41.9729L15.1809 37.3382C14.6591 36.8816 14.4561 36.1599 14.6634 35.4982C14.8707 34.8364 15.4492 34.3595 16.1383 34.2823L23.3877 33.4689L26.4271 27.2333C26.7202 26.6317 27.3308 26.25 28.0002 26.25Z" fill="var(--fill-0, #E5B701)"/>
<path id="Vector_2" fill-rule="evenodd" clip-rule="evenodd" d="M25.6669 5.25H8.16667C7.20018 5.25 6.41667 6.03351 6.41667 7V18.6667C6.41667 19.3445 6.80815 19.9615 7.42152 20.2501L27.255 29.5834C27.7268 29.8055 28.2732 29.8055 28.745 29.5834L48.5784 20.2501C49.1918 19.9615 49.5833 19.3445 49.5833 18.6667V7C49.5833 6.03351 48.7998 5.25 47.8333 5.25H30.3331C30.3333 5.2584 30.3333 5.26682 30.3333 5.27525V14.6086C30.3333 15.8973 29.2887 16.9419 28 16.9419C26.7113 16.9419 25.6667 15.8973 25.6667 14.6086V5.27525C25.6667 5.26682 25.6667 5.2584 25.6669 5.25Z" fill="var(--fill-0, #E5B701)"/>
</g>
</svg>
