<svg preserveAspectRatio="none" width="100%" height="100%" overflow="visible" style="display: block;" viewBox="0 0 56 56" fill="none" xmlns="http://www.w3.org/2000/svg">
<g id="comment-01">
<path id="Vector" fill-rule="evenodd" clip-rule="evenodd" d="M8.75 4.66667C5.20618 4.66667 2.33333 7.53951 2.33333 11.0833V39.0766C2.33333 42.6204 5.20618 45.4932 8.75 45.4932H11.6644V48.4944C11.6644 51.8317 15.4505 53.7595 18.1494 51.7967L26.8168 45.4932H46.0794C49.6232 45.4932 52.496 42.6204 52.496 39.0766V11.0833C52.496 7.53951 49.6232 4.66667 46.0794 4.66667H8.75ZM26.2491 20.9932C27.2155 20.9924 27.9984 20.2083 27.9977 19.2418C27.997 18.2753 27.2127 17.4924 26.2463 17.4932L18.0911 17.4996C17.1246 17.5003 16.3417 18.2844 16.3425 19.251C16.3432 20.2174 17.1273 21.0003 18.0938 20.9996L26.2491 20.9932ZM18.081 29.1599C17.1146 29.1599 16.331 29.9434 16.331 30.9099C16.331 31.8764 17.1146 32.6599 18.081 32.6599H35.581C36.5475 32.6599 37.331 31.8764 37.331 30.9099C37.331 29.9434 36.5475 29.1599 35.581 29.1599H18.081Z" fill="var(--fill-0, #E5B701)"/>
</g>
</svg>
