<svg preserveAspectRatio="none" width="100%" height="100%" overflow="visible" style="display: block;" viewBox="0 0 56 56" fill="none" xmlns="http://www.w3.org/2000/svg">
<g id="wellness">
<path id="Vector" d="M13.8956 30.9167C12.8857 30.9167 11.9598 30.9164 11.2065 31.0177C10.3771 31.1292 9.50038 31.3915 8.77934 32.1127C8.05829 32.8337 7.79591 33.7104 7.6844 34.5399C7.58313 35.2931 7.58322 36.2189 7.58334 37.229V43.3148C7.58325 44.0806 7.58318 44.7981 7.65306 45.3976C7.73083 46.0649 7.91089 46.7663 8.39431 47.414C8.87773 48.0618 9.49905 48.4339 10.1166 48.6983C10.6715 48.9358 11.3594 49.14 12.0935 49.3577L23.7575 52.8187C25.448 53.3204 27.2596 53.1022 28.788 52.2205L46.3244 42.1022C48.5018 40.8459 49.0621 37.9489 47.6119 35.9408C45.9954 33.702 43.1706 32.7154 40.5328 33.5356L40.5293 33.5368L35.5698 35.0604C34.9897 35.2387 34.6995 35.3278 34.6085 35.4951C34.5177 35.6624 34.6262 36.0439 34.8432 36.8067C35.0086 37.3884 35.0282 37.9463 35 38.2604C35 40.5501 33.439 42.399 31.4223 42.9564L25.4935 44.5956C23.3429 45.1904 21.0394 44.9857 19.0257 44.0116L15.2451 42.1822C14.5201 41.8315 14.2167 40.9593 14.5675 40.2344C14.9183 39.5094 15.7904 39.2061 16.5154 39.5568L20.2961 41.3861C21.6695 42.0506 23.2451 42.1913 24.7163 41.7844L30.6451 40.1452C31.462 39.9194 32.0833 39.1729 32.0833 38.2604C32.0833 34.9631 29.3377 34.1255 26.0729 34.1255L23.6402 34.1252C23.2161 34.1252 22.7999 34.0296 22.4252 33.8483L17.6606 31.5429C16.8075 31.1302 15.8698 30.9167 14.9213 30.9167H13.8956Z" fill="var(--fill-0, #E5B701)"/>
<path id="Vector_2" d="M26.72 3.46936C27.0509 3.11673 27.5129 2.91667 27.9964 2.91667C28.4798 2.91667 28.9418 3.11673 29.2727 3.46936C29.5683 3.78462 29.8938 4.18838 30.143 4.50879C30.6407 5.14822 31.3001 6.06825 31.96 7.2055C33.2662 9.45672 34.6464 12.6838 34.6464 16.3333C34.6464 19.9829 33.2662 23.2099 31.96 25.4611C31.3001 26.5984 30.6407 27.5184 30.143 28.158C29.9036 28.4657 29.4605 28.9795 29.2918 29.1748L29.2727 29.1972C28.9418 29.55 28.4798 29.75 27.9964 29.75C27.5129 29.75 27.05 29.5491 26.7193 29.1965L26.7009 29.1751C26.5329 28.9805 26.0896 28.4662 25.8495 28.158C25.352 27.5184 24.6926 26.5984 24.0327 25.4611C22.7265 23.2099 21.3464 19.9829 21.3464 16.3333C21.3464 12.6838 22.7265 9.45672 24.0327 7.2055C24.6926 6.06825 25.352 5.14822 25.8495 4.50879C26.0989 4.18838 26.3334 3.88145 26.72 3.46936Z" fill="var(--fill-0, #E5B701)"/>
<path id="Vector_3" d="M9.91718 11.8407C9.904 11.2394 10.1432 10.6588 10.5794 10.2337C11.0156 9.80854 11.611 9.57567 12.2275 9.58909C12.5938 9.61737 13.7336 9.70326 14.3529 9.79512C15.5852 9.97792 17.2712 10.3273 19.0673 11.0002C20.2327 11.4368 20.8146 12.7123 20.367 13.8491C19.9195 14.986 18.6119 15.5536 17.4465 15.117C16.5034 14.7637 15.5871 14.5201 14.7833 14.3528C14.8422 14.6381 14.9111 14.9387 14.9913 15.2506C15.5258 17.3268 16.5203 19.7164 18.3123 21.5002C20.1003 23.2799 22.4889 24.2632 24.5593 24.7912C25.5778 25.0509 26.4749 25.1893 27.1115 25.2621C27.3658 25.3101 28.0775 25.3778 28.8885 25.2621C29.5251 25.1893 30.4222 25.0509 31.4407 24.7912C33.5111 24.2632 35.8997 23.2799 37.6878 21.5002C39.4798 19.7164 40.4742 17.3268 41.0086 15.2506C41.0891 14.9387 41.1577 14.6381 41.2167 14.3528C40.4129 14.5201 39.4966 14.7637 38.5534 15.117C37.3882 15.5536 36.0806 14.986 35.633 13.8491C35.1855 12.7123 35.7674 11.4368 36.9327 11.0002C38.7289 10.3273 40.415 9.97792 41.647 9.79512C42.2665 9.70326 42.9889 9.58909 43.7726 9.58909C44.3891 9.57567 44.9843 9.80854 45.4207 10.2337C45.8568 10.6588 46.0959 11.2394 46.0829 11.8407C46.0761 12.1482 46.0229 12.7894 45.9772 13.1863C45.8859 13.9778 45.7149 15.0759 45.3934 16.3246C44.7599 18.786 43.4938 22.0214 40.9164 24.5868C38.335 27.1565 35.0726 28.4233 32.5843 29.0577C31.3234 29.3795 30.2143 29.5507 29.4145 29.642C28 29.8037 28 29.8037 26.5855 29.642C25.7857 29.5507 24.6766 29.3795 23.4157 29.0577C20.9274 28.4233 17.6649 27.1565 15.0835 24.5868C12.5062 22.0214 11.2402 18.786 10.6066 16.3246C10.2852 15.0759 10.1141 13.9778 10.0228 13.1863C9.97701 12.7894 9.93198 12.0707 9.91718 11.8407Z" fill="var(--fill-0, #E5B701)"/>
</g>
</svg>
